<svg xmlns="http://www.w3.org/2000/svg" viewBox="0 0 512 512">
  <defs>
    <linearGradient id="chatGradient" x1="0%" y1="0%" x2="100%" y2="100%">
      <stop offset="0%" style="stop-color:#8FBC8F" />
      <stop offset="100%" style="stop-color:#556B2F" />
    </linearGradient>
  </defs>
  <circle cx="256" cy="256" r="256" fill="url(#chatGradient)" />
  <!-- Chat bubble shape -->
  <path d="M128 152c-13.3 0-24 10.7-24 24v160c0 13.3 10.7 24 24 24h64v56c0 9.4 10.9 14.7 18.3 8.8l77.6-64.8H368c13.3 0 24-10.7 24-24V176c0-13.3-10.7-24-24-24H128z" fill="white" opacity="0.9" />
  <!-- Ayurvedic leaf symbol -->
  <path d="M240 200c-22.1 0-40 17.9-40 40s17.9 40 40 40c7.6 0 14.7-2.2 20.8-5.9-5.3 9.2-13.2 16.6-22.8 20.9-5.8 2.6-8.5 9.4-5.9 15.2 2.6 5.8 9.4 8.5 15.2 5.9 27.5-12.4 44.7-40.3 40.7-70.1-4-29.8-29.3-53.5-59.3-55.8-1.4-0.1-2.8-0.2-4.2-0.2-11.8 0-22.6 4.1-31.2 10.9" fill="#556B2F" />
  <path d="M272 240c0-17.7-14.3-32-32-32s-32 14.3-32 32 14.3 32 32 32 32-14.3 32-32zm-48 0c0-8.8 7.2-16 16-16s16 7.2 16 16-7.2 16-16 16-16-7.2-16-16z" fill="white" />
</svg>